<svg width="286" height="30" viewBox="0 0 286 30" fill="none" xmlns="http://www.w3.org/2000/svg">
<path d="M10.96 29.88C8.90667 29.88 7.06667 29.5467 5.44001 28.88C3.81334 28.2133 2.50667 27.2267 1.52001 25.92C0.560007 24.6133 0.0533408 23.04 7.45058e-06 21.2H7.28001C7.38667 22.24 7.74667 23.04 8.36001 23.6C8.97334 24.1333 9.77334 24.4 10.76 24.4C11.7733 24.4 12.5733 24.1733 13.16 23.72C13.7467 23.24 14.04 22.5867 14.04 21.76C14.04 21.0667 13.8 20.4933 13.32 20.04C12.8667 19.5867 12.2933 19.2133 11.6 18.92C10.9333 18.6267 9.97334 18.2933 8.72001 17.92C6.90667 17.36 5.42667 16.8 4.28001 16.24C3.13334 15.68 2.14667 14.8533 1.32001 13.76C0.493341 12.6667 0.0800075 11.24 0.0800075 9.48001C0.0800075 6.86667 1.02667 4.82667 2.92001 3.36001C4.81334 1.86667 7.28001 1.12001 10.32 1.12001C13.4133 1.12001 15.9067 1.86667 17.8 3.36001C19.6933 4.82667 20.7067 6.88001 20.84 9.52H13.44C13.3867 8.61334 13.0533 7.90667 12.44 7.40001C11.8267 6.86667 11.04 6.6 10.08 6.6C9.25334 6.6 8.58667 6.82667 8.08001 7.28C7.57334 7.70667 7.32001 8.33334 7.32001 9.16C7.32001 10.0667 7.74667 10.7733 8.60001 11.28C9.45334 11.7867 10.7867 12.3333 12.6 12.92C14.4133 13.5333 15.88 14.12 17 14.68C18.1467 15.24 19.1333 16.0533 19.96 17.12C20.7867 18.1867 21.2 19.56 21.2 21.24C21.2 22.84 20.7867 24.2933 19.96 25.6C19.16 26.9067 17.9867 27.9467 16.44 28.72C14.8933 29.4933 13.0667 29.88 10.96 29.88ZM39.1294 7.04001C41.6894 7.04001 43.7427 7.89334 45.2894 9.60001C46.8361 11.28 47.6094 13.6 47.6094 16.56V29.6H40.8094V17.48C40.8094 15.9867 40.4227 14.8267 39.6494 14C38.876 13.1733 37.836 12.76 36.5294 12.76C35.2227 12.76 34.1827 13.1733 33.4094 14C32.636 14.8267 32.2494 15.9867 32.2494 17.48V29.6H25.4094V5.72205e-06H32.2494V10.28C32.9427 9.29334 33.8894 8.50667 35.0894 7.92C36.2894 7.33334 37.636 7.04001 39.1294 7.04001ZM51.0025 18.4C51.0025 16.1067 51.4292 14.0933 52.2825 12.36C53.1625 10.6267 54.3492 9.29334 55.8425 8.36001C57.3358 7.42667 59.0025 6.96 60.8425 6.96C62.4158 6.96 63.7892 7.28 64.9625 7.92C66.1625 8.56001 67.0825 9.40001 67.7225 10.44V7.28H74.5625V29.6H67.7225V26.44C67.0558 27.48 66.1225 28.32 64.9225 28.96C63.7492 29.6 62.3758 29.92 60.8025 29.92C58.9892 29.92 57.3358 29.4533 55.8425 28.52C54.3492 27.56 53.1625 26.2133 52.2825 24.48C51.4292 22.72 51.0025 20.6933 51.0025 18.4ZM67.7225 18.44C67.7225 16.7333 67.2425 15.3867 66.2825 14.4C65.3492 13.4133 64.2025 12.92 62.8425 12.92C61.4825 12.92 60.3225 13.4133 59.3625 14.4C58.4292 15.36 57.9625 16.6933 57.9625 18.4C57.9625 20.1067 58.4292 21.4667 59.3625 22.48C60.3225 23.4667 61.4825 23.96 62.8425 23.96C64.2025 23.96 65.3492 23.4667 66.2825 22.48C67.2425 21.4933 67.7225 20.1467 67.7225 18.44ZM86.3509 11C87.1509 9.77334 88.1509 8.81334 89.3509 8.12001C90.5509 7.40001 91.8843 7.04001 93.3509 7.04001V14.28H91.4709C89.7643 14.28 88.4843 14.6533 87.6309 15.4C86.7776 16.12 86.3509 17.4 86.3509 19.24V29.6H79.5109V7.28H86.3509V11ZM117.66 18.08C117.66 18.72 117.62 19.3867 117.54 20.08H102.06C102.167 21.4667 102.607 22.5333 103.38 23.28C104.18 24 105.154 24.36 106.3 24.36C108.007 24.36 109.194 23.64 109.86 22.2H117.14C116.767 23.6667 116.087 24.9867 115.1 26.16C114.14 27.3333 112.927 28.2533 111.46 28.92C109.994 29.5867 108.354 29.92 106.54 29.92C104.354 29.92 102.407 29.4533 100.7 28.52C98.9937 27.5867 97.6603 26.2533 96.7003 24.52C95.7403 22.7867 95.2603 20.76 95.2603 18.44C95.2603 16.12 95.727 14.0933 96.6603 12.36C97.6203 10.6267 98.9537 9.29334 100.66 8.36001C102.367 7.42667 104.327 6.96 106.54 6.96C108.7 6.96 110.62 7.41334 112.3 8.32001C113.98 9.22667 115.287 10.52 116.22 12.2C117.18 13.88 117.66 15.84 117.66 18.08ZM110.66 16.28C110.66 15.1067 110.26 14.1733 109.46 13.48C108.66 12.7867 107.66 12.44 106.46 12.44C105.314 12.44 104.34 12.7733 103.54 13.44C102.767 14.1067 102.287 15.0533 102.1 16.28H110.66ZM149.749 7.04001C152.522 7.04001 154.722 7.88001 156.349 9.56C158.002 11.24 158.829 13.5733 158.829 16.56V29.6H152.029V17.48C152.029 16.04 151.642 14.9333 150.869 14.16C150.122 13.36 149.082 12.96 147.749 12.96C146.415 12.96 145.362 13.36 144.589 14.16C143.842 14.9333 143.469 16.04 143.469 17.48V29.6H136.669V17.48C136.669 16.04 136.282 14.9333 135.509 14.16C134.762 13.36 133.722 12.96 132.389 12.96C131.055 12.96 130.002 13.36 129.229 14.16C128.482 14.9333 128.109 16.04 128.109 17.48V29.6H121.269V7.28H128.109V10.08C128.802 9.14667 129.709 8.41334 130.829 7.88C131.949 7.32001 133.215 7.04001 134.629 7.04001C136.309 7.04001 137.802 7.40001 139.109 8.12001C140.442 8.84 141.482 9.86667 142.229 11.2C143.002 9.97334 144.055 8.97334 145.389 8.20001C146.722 7.42667 148.175 7.04001 149.749 7.04001ZM184.653 18.08C184.653 18.72 184.613 19.3867 184.533 20.08H169.053C169.159 21.4667 169.599 22.5333 170.373 23.28C171.173 24 172.146 24.36 173.293 24.36C174.999 24.36 176.186 23.64 176.853 22.2H184.133C183.759 23.6667 183.079 24.9867 182.093 26.16C181.133 27.3333 179.919 28.2533 178.453 28.92C176.986 29.5867 175.346 29.92 173.533 29.92C171.346 29.92 169.399 29.4533 167.693 28.52C165.986 27.5867 164.653 26.2533 163.693 24.52C162.733 22.7867 162.253 20.76 162.253 18.44C162.253 16.12 162.719 14.0933 163.653 12.36C164.613 10.6267 165.946 9.29334 167.653 8.36001C169.359 7.42667 171.319 6.96 173.533 6.96C175.693 6.96 177.613 7.41334 179.293 8.32001C180.973 9.22667 182.279 10.52 183.213 12.2C184.173 13.88 184.653 15.84 184.653 18.08ZM177.653 16.28C177.653 15.1067 177.253 14.1733 176.453 13.48C175.653 12.7867 174.653 12.44 173.453 12.44C172.306 12.44 171.333 12.7733 170.533 13.44C169.759 14.1067 169.279 15.0533 169.093 16.28H177.653Z" fill="white"/>
<path d="M187.101 15.52C187.101 12.7467 187.701 10.28 188.901 8.12001C190.101 5.93334 191.768 4.24001 193.901 3.04C196.061 1.81334 198.501 1.2 201.221 1.2C204.554 1.2 207.408 2.08 209.781 3.84C212.154 5.60001 213.741 8.00001 214.541 11.04H207.021C206.461 9.86667 205.661 8.97334 204.621 8.36001C203.608 7.74667 202.448 7.44001 201.141 7.44001C199.034 7.44001 197.328 8.17334 196.021 9.64001C194.714 11.1067 194.061 13.0667 194.061 15.52C194.061 17.9733 194.714 19.9333 196.021 21.4C197.328 22.8667 199.034 23.6 201.141 23.6C202.448 23.6 203.608 23.2933 204.621 22.68C205.661 22.0667 206.461 21.1733 207.021 20H214.541C213.741 23.04 212.154 25.44 209.781 27.2C207.408 28.9333 204.554 29.8 201.221 29.8C198.501 29.8 196.061 29.2 193.901 28C191.768 26.7733 190.101 25.08 188.901 22.92C187.701 20.76 187.101 18.2933 187.101 15.52ZM232.45 7.04001C235.01 7.04001 237.063 7.89334 238.61 9.60001C240.156 11.28 240.93 13.6 240.93 16.56V29.6H234.13V17.48C234.13 15.9867 233.743 14.8267 232.97 14C232.196 13.1733 231.156 12.76 229.85 12.76C228.543 12.76 227.503 13.1733 226.73 14C225.956 14.8267 225.57 15.9867 225.57 17.48V29.6H218.73V5.72205e-06H225.57V10.28C226.263 9.29334 227.21 8.50667 228.41 7.92C229.61 7.33334 230.956 7.04001 232.45 7.04001ZM244.323 18.4C244.323 16.1067 244.749 14.0933 245.603 12.36C246.483 10.6267 247.669 9.29334 249.163 8.36001C250.656 7.42667 252.323 6.96 254.163 6.96C255.736 6.96 257.109 7.28 258.283 7.92C259.483 8.56001 260.403 9.40001 261.043 10.44V7.28H267.883V29.6H261.043V26.44C260.376 27.48 259.443 28.32 258.243 28.96C257.069 29.6 255.696 29.92 254.123 29.92C252.309 29.92 250.656 29.4533 249.163 28.52C247.669 27.56 246.483 26.2133 245.603 24.48C244.749 22.72 244.323 20.6933 244.323 18.4ZM261.043 18.44C261.043 16.7333 260.563 15.3867 259.603 14.4C258.669 13.4133 257.523 12.92 256.163 12.92C254.803 12.92 253.643 13.4133 252.683 14.4C251.749 15.36 251.283 16.6933 251.283 18.4C251.283 20.1067 251.749 21.4667 252.683 22.48C253.643 23.4667 254.803 23.96 256.163 23.96C257.523 23.96 258.669 23.4667 259.603 22.48C260.563 21.4933 261.043 20.1467 261.043 18.44ZM285.271 23.8V29.6H281.791C279.311 29.6 277.378 29 275.991 27.8C274.605 26.5733 273.911 24.5867 273.911 21.84V12.96H271.191V7.28H273.911V1.84001H280.751V7.28H285.231V12.96H280.751V21.92C280.751 22.5867 280.911 23.0667 281.231 23.36C281.551 23.6533 282.085 23.8 282.831 23.8H285.271Z" fill="#B50A0A"/>
</svg>
