<svg width="286" height="30" viewBox="0 0 286 30" fill="none" xmlns="http://www.w3.org/2000/svg">
<path d="M8.04 0.439998C8.46667 0.439998 8.92 0.466665 9.4 0.52C9.90667 0.573332 10.3867 0.653332 10.84 0.759999C11.32 0.839999 11.7467 0.933332 12.12 1.04C12.52 1.12 12.8267 1.21333 13.04 1.32V5.76H12.68C12.68 4.48 12.24 3.48 11.36 2.76C10.48 2.01333 9.41333 1.64 8.16 1.64C6.69333 1.64 5.50667 2.10667 4.6 3.04C3.69333 3.94667 3.24 5.01333 3.24 6.24C3.24 6.74667 3.34667 7.34667 3.56 8.04C3.8 8.70667 4.22667 9.33333 4.84 9.92L12.72 17.2C13.52 17.9467 14.0533 18.7467 14.32 19.6C14.5867 20.4533 14.72 21.28 14.72 22.08C14.72 24.2933 14.04 26.0933 12.68 27.48C11.3467 28.8667 9.53333 29.56 7.24 29.56C6.6 29.56 5.84 29.4933 4.96 29.36C4.10667 29.2267 3.26667 29 2.44 28.68C1.64 28.3333 0.973333 27.8933 0.44 27.36C0.36 26.9333 0.32 26.4 0.32 25.76C0.32 25.12 0.373333 24.4533 0.48 23.76C0.586667 23.04 0.733333 22.3867 0.92 21.8H1.28C1.14667 23.16 1.32 24.3467 1.8 25.36C2.28 26.3733 2.97333 27.1467 3.88 27.68C4.81333 28.1867 5.86667 28.4133 7.04 28.36C8.50667 28.28 9.76 27.7733 10.8 26.84C11.8667 25.88 12.4 24.6 12.4 23C12.4 22.2267 12.2667 21.5333 12 20.92C11.7333 20.28 11.3467 19.7333 10.84 19.28L3.16 12.16C2.36 11.4133 1.8 10.6 1.48 9.72C1.16 8.81333 1 7.97333 1 7.2C1 6.08 1.26667 5 1.8 3.96C2.33333 2.92 3.12 2.08 4.16 1.44C5.22667 0.773332 6.52 0.439998 8.04 0.439998ZM13.04 0.839998V1.68H10V0.839998H13.04ZM41.8644 5V29H39.3044V5H41.8644ZM24.5444 5V29H21.9844V5H24.5444ZM39.7044 16.56V17.76H24.1044V16.56H39.7044ZM22.1044 26.44V29H19.1844V28.6C19.1844 28.6 19.2644 28.6 19.4244 28.6C19.5844 28.6 19.6644 28.6 19.6644 28.6C20.3044 28.6 20.8377 28.3867 21.2644 27.96C21.7177 27.5333 21.9577 27.0267 21.9844 26.44H22.1044ZM24.4244 26.44H24.5444C24.5444 27.0267 24.771 27.5333 25.2244 27.96C25.6777 28.3867 26.2244 28.6 26.8644 28.6C26.8644 28.6 26.9444 28.6 27.1044 28.6C27.2644 28.6 27.3444 28.6 27.3444 28.6V29H24.4244V26.44ZM24.4244 7.56V5H27.3444V5.4C27.3444 5.4 27.2644 5.4 27.1044 5.4C26.9444 5.4 26.8644 5.4 26.8644 5.4C26.2244 5.4 25.6777 5.61333 25.2244 6.04C24.771 6.44 24.5444 6.94667 24.5444 7.56H24.4244ZM22.1044 7.56H21.9844C21.9577 6.94667 21.7177 6.44 21.2644 6.04C20.8377 5.61333 20.3044 5.4 19.6644 5.4C19.6644 5.4 19.5844 5.4 19.4244 5.4C19.2644 5.4 19.1844 5.4 19.1844 5.4V5H22.1044V7.56ZM39.4244 26.44V29H36.5044V28.6C36.5044 28.6 36.5844 28.6 36.7444 28.6C36.9044 28.6 36.9844 28.6 36.9844 28.6C37.6244 28.6 38.1577 28.3867 38.5844 27.96C39.0377 27.5333 39.2777 27.0267 39.3044 26.44H39.4244ZM41.7444 26.44H41.8644C41.891 27.0267 42.1177 27.5333 42.5444 27.96C42.9977 28.3867 43.5444 28.6 44.1844 28.6C44.1844 28.6 44.2644 28.6 44.4244 28.6C44.5844 28.6 44.6644 28.6 44.6644 28.6V29H41.7444V26.44ZM41.7444 7.56V5H44.6644V5.4C44.6644 5.4 44.5844 5.4 44.4244 5.4C44.2644 5.4 44.1844 5.4 44.1844 5.4C43.5444 5.4 42.9977 5.61333 42.5444 6.04C42.1177 6.44 41.891 6.94667 41.8644 7.56H41.7444ZM39.4244 7.56H39.3044C39.2777 6.94667 39.0377 6.44 38.5844 6.04C38.1577 5.61333 37.6244 5.4 36.9844 5.4C36.9844 5.4 36.9044 5.4 36.7444 5.4C36.5844 5.4 36.5044 5.4 36.5044 5.4V5H39.4244V7.56ZM60.2681 4.44L71.2681 28.76H68.1081L59.5881 8L60.2681 4.44ZM52.5481 26.08C52.2548 26.88 52.2948 27.5067 52.6681 27.96C53.0415 28.3867 53.4681 28.6 53.9481 28.6H54.2681V29H46.6281V28.6C46.6281 28.6 46.6815 28.6 46.7881 28.6C46.8948 28.6 46.9481 28.6 46.9481 28.6C47.5081 28.6 48.0815 28.4133 48.6681 28.04C49.2548 27.64 49.7615 26.9867 50.1881 26.08H52.5481ZM60.2681 4.44L60.5481 7.2L51.3881 28.88H48.8681L58.3481 8.56C58.3481 8.56 58.4148 8.4 58.5481 8.08C58.7081 7.76 58.8815 7.37333 59.0681 6.92C59.2815 6.44 59.4681 5.97333 59.6281 5.52C59.7881 5.06667 59.8815 4.70667 59.9081 4.44H60.2681ZM64.9881 19.68V20.88H54.3881V19.68H64.9881ZM67.0281 26.08H70.0681C70.4681 26.9867 70.9615 27.64 71.5481 28.04C72.1348 28.4133 72.6948 28.6 73.2281 28.6C73.2281 28.6 73.2815 28.6 73.3881 28.6C73.4948 28.6 73.5481 28.6 73.5481 28.6V29H65.3481V28.6H65.6681C66.1215 28.6 66.5348 28.3867 66.9081 27.96C67.2815 27.5067 67.3215 26.88 67.0281 26.08ZM80.4316 5H85.5916C86.8449 5 87.9649 5.14667 88.9516 5.44C89.9649 5.73333 90.8182 6.16 91.5116 6.72C92.2316 7.28 92.7782 7.96 93.1516 8.76C93.5249 9.56 93.7116 10.4667 93.7116 11.48C93.7116 12.6 93.4449 13.64 92.9116 14.6C92.3782 15.56 91.6316 16.3467 90.6716 16.96C89.7382 17.5733 88.6716 17.9467 87.4716 18.08C87.9249 18.2667 88.4449 18.68 89.0316 19.32C89.6449 19.96 90.1649 20.5867 90.5916 21.2C90.5916 21.2 90.7649 21.44 91.1116 21.92C91.4582 22.3733 91.8982 22.9467 92.4316 23.64C92.9916 24.3067 93.5382 24.9467 94.0716 25.56C94.6316 26.1733 95.1382 26.7067 95.5916 27.16C96.0716 27.6133 96.5782 27.9733 97.1116 28.24C97.6716 28.48 98.3116 28.6 99.0316 28.6V29H97.7916C96.3249 29 95.1116 28.8133 94.1516 28.44C93.2182 28.0667 92.4582 27.6133 91.8716 27.08C91.2849 26.52 90.7782 25.9867 90.3516 25.48C90.2449 25.3467 89.9916 25.0133 89.5916 24.48C89.2182 23.92 88.8049 23.32 88.3516 22.68C87.8982 22.04 87.4849 21.4667 87.1116 20.96C86.7382 20.4267 86.5116 20.1067 86.4316 20C85.8982 19.3067 85.2849 18.6933 84.5916 18.16C83.8982 17.6 83.1649 17.32 82.3916 17.32V16.92C82.3916 16.92 82.6049 16.9333 83.0316 16.96C83.4582 16.96 84.0049 16.9467 84.6716 16.92C85.4182 16.8933 86.1649 16.84 86.9116 16.76C87.6582 16.6533 88.3516 16.36 88.9916 15.88C89.6582 15.4 90.1782 14.6 90.5516 13.48C90.6582 13.1867 90.7382 12.84 90.7916 12.44C90.8449 12.04 90.8582 11.6267 90.8316 11.2C90.8049 10.4533 90.6582 9.78667 90.3916 9.2C90.1516 8.61333 89.7916 8.10667 89.3116 7.68C88.8582 7.25333 88.3116 6.92 87.6716 6.68C87.0316 6.44 86.3116 6.30667 85.5116 6.28C84.2582 6.22667 83.1649 6.21333 82.2316 6.24C81.2982 6.26667 80.8316 6.26667 80.8316 6.24C80.8316 6.21333 80.7916 6.10666 80.7116 5.92C80.6582 5.70667 80.5916 5.50667 80.5116 5.32C80.4582 5.10667 80.4316 5 80.4316 5ZM80.9116 5V29H78.3516V5H80.9116ZM78.4716 26.44L78.9516 29H75.5516V28.6C75.5516 28.6 75.6449 28.6 75.8316 28.6C76.0182 28.6 76.1116 28.6 76.1116 28.6C76.7516 28.6 77.2849 28.3867 77.7116 27.96C78.1382 27.5333 78.3649 27.0267 78.3916 26.44H78.4716ZM78.4716 7.52H78.3916C78.3649 6.90667 78.1382 6.4 77.7116 6C77.2849 5.6 76.7516 5.4 76.1116 5.4C76.1116 5.4 76.0182 5.4 75.8316 5.4C75.6449 5.4 75.5516 5.4 75.5516 5.4V5H78.9516L78.4716 7.52ZM80.7916 26.44H80.9116C80.9382 27.0267 81.1649 27.5333 81.5916 27.96C82.0182 28.3867 82.5516 28.6 83.1916 28.6C83.1916 28.6 83.2716 28.6 83.4316 28.6C83.6182 28.6 83.7116 28.6 83.7116 28.6L83.7516 29H80.3116L80.7916 26.44ZM106.07 5V29H103.51V5H106.07ZM116.83 27.76L116.75 29H105.99V27.76H116.83ZM114.95 16.4V17.6H105.99V16.4H114.95ZM116.79 5V6.24H105.99V5H116.79ZM119.07 23.28L116.87 29H110.79L112.15 27.76C113.483 27.76 114.55 27.5733 115.35 27.2C116.176 26.8 116.843 26.2667 117.35 25.6C117.856 24.9067 118.296 24.1333 118.67 23.28H119.07ZM114.95 17.52V19.8H114.51V19.28C114.51 18.8267 114.376 18.44 114.11 18.12C113.843 17.7733 113.43 17.6 112.87 17.6V17.52H114.95ZM114.95 14.2V16.48H112.87V16.4C113.43 16.4 113.843 16.24 114.11 15.92C114.376 15.5733 114.51 15.1733 114.51 14.72V14.2H114.95ZM116.79 6.12V8.88H116.35V8.28C116.35 7.72 116.163 7.24 115.79 6.84C115.443 6.44 114.963 6.24 114.35 6.24V6.12H116.79ZM116.79 4.36V5.4L112.23 5C113.056 5 113.936 4.93333 114.87 4.8C115.803 4.64 116.443 4.49333 116.79 4.36ZM103.59 26.44L104.11 29H100.63V28.6C100.63 28.6 100.723 28.6 100.91 28.6C101.096 28.6 101.19 28.6 101.19 28.6C101.856 28.6 102.403 28.3867 102.83 27.96C103.256 27.5333 103.483 27.0267 103.51 26.44H103.59ZM103.59 7.52H103.51C103.483 6.90667 103.256 6.4 102.83 6C102.403 5.6 101.856 5.4 101.19 5.4C101.19 5.4 101.096 5.4 100.91 5.4C100.723 5.4 100.63 5.4 100.63 5.4V5H104.11L103.59 7.52ZM148.186 4.44L148.546 7.04L139.186 25.48C139.186 25.48 139.079 25.7067 138.866 26.16C138.679 26.6133 138.479 27.16 138.266 27.8C138.052 28.4133 137.892 29 137.786 29.56H137.386L136.826 27.04L148.186 4.44ZM124.746 26.32V29H120.586V28.6C120.586 28.6 120.679 28.6 120.866 28.6C121.079 28.6 121.186 28.6 121.186 28.6C121.879 28.6 122.479 28.4 122.986 28C123.519 27.6 123.826 27.04 123.906 26.32H124.746ZM125.946 26.92C125.919 27.32 126.012 27.7067 126.226 28.08C126.439 28.4267 126.839 28.6133 127.426 28.64H127.986V29H125.706V26.92H125.946ZM127.026 4.44H127.426L128.226 6.8L125.746 29H123.546L127.026 4.44ZM127.426 4.44L138.306 25.36L137.386 29.56L126.666 8.84L127.426 4.44ZM148.546 4.44L152.146 29H149.106L146.506 8.88L148.186 4.44H148.546ZM150.946 26.32H151.746C151.852 27.04 152.172 27.6 152.706 28C153.239 28.4 153.839 28.6 154.506 28.6C154.506 28.6 154.599 28.6 154.786 28.6C154.999 28.6 155.106 28.6 155.106 28.6V29H150.946V26.32ZM148.826 26.92H149.106V29H146.786V28.64H147.386C147.999 28.6133 148.399 28.4133 148.586 28.04C148.799 27.6667 148.879 27.2933 148.826 26.92ZM163.023 5V29H160.463V5H163.023ZM173.783 27.76L173.703 29H162.943V27.76H173.783ZM171.903 16.4V17.6H162.943V16.4H171.903ZM173.743 5V6.24H162.943V5H173.743ZM176.023 23.28L173.823 29H167.743L169.103 27.76C170.436 27.76 171.503 27.5733 172.303 27.2C173.129 26.8 173.796 26.2667 174.303 25.6C174.809 24.9067 175.249 24.1333 175.623 23.28H176.023ZM171.903 17.52V19.8H171.463V19.28C171.463 18.8267 171.329 18.44 171.063 18.12C170.796 17.7733 170.383 17.6 169.823 17.6V17.52H171.903ZM171.903 14.2V16.48H169.823V16.4C170.383 16.4 170.796 16.24 171.063 15.92C171.329 15.5733 171.463 15.1733 171.463 14.72V14.2H171.903ZM173.743 6.12V8.88H173.303V8.28C173.303 7.72 173.116 7.24 172.743 6.84C172.396 6.44 171.916 6.24 171.303 6.24V6.12H173.743ZM173.743 4.36V5.4L169.183 5C170.009 5 170.889 4.93333 171.823 4.8C172.756 4.64 173.396 4.49333 173.743 4.36ZM160.543 26.44L161.063 29H157.583V28.6C157.583 28.6 157.676 28.6 157.863 28.6C158.049 28.6 158.143 28.6 158.143 28.6C158.809 28.6 159.356 28.3867 159.783 27.96C160.209 27.5333 160.436 27.0267 160.463 26.44H160.543ZM160.543 7.52H160.463C160.436 6.90667 160.209 6.4 159.783 6C159.356 5.6 158.809 5.4 158.143 5.4C158.143 5.4 158.049 5.4 157.863 5.4C157.676 5.4 157.583 5.4 157.583 5.4V5H161.063L160.543 7.52Z" fill="white"/>
<path d="M206.099 17.32L206.459 24.2C205.872 25.1867 205.085 26.08 204.099 26.88C203.112 27.68 201.885 28.3333 200.419 28.84C198.952 29.32 197.219 29.56 195.219 29.56C191.965 29.5333 189.112 28.9467 186.659 27.8C184.232 26.6267 182.352 24.96 181.019 22.8C179.685 20.64 179.019 18.0267 179.019 14.96C179.019 11.9733 179.672 9.4 180.979 7.24C182.285 5.05333 184.152 3.37333 186.579 2.2C189.032 1.02667 191.952 0.439998 195.339 0.439998C197.472 0.439998 199.379 0.653332 201.059 1.08C202.765 1.50667 204.192 2.02667 205.339 2.64L205.379 9.48H205.019C204.299 6.84 203.125 4.96 201.499 3.84C199.872 2.69333 197.965 2.12 195.779 2.12C193.645 2.12 191.819 2.64 190.299 3.68C188.779 4.72 187.605 6.18667 186.779 8.08C185.952 9.97333 185.539 12.24 185.539 14.88C185.539 17.52 185.925 19.8 186.699 21.72C187.499 23.64 188.619 25.1333 190.059 26.2C191.525 27.2667 193.245 27.8267 195.219 27.88C197.272 27.88 199.005 27.5467 200.419 26.88C201.832 26.2133 202.965 25.1067 203.819 23.56C204.699 22.0133 205.352 19.9333 205.779 17.32H206.099ZM234.47 5V29H228.75V5H234.47ZM218.19 5V29H212.43V5H218.19ZM229.07 16.24V17.84H217.83V16.24H229.07ZM212.55 26.48V29H209.79V28.6C209.79 28.6 209.856 28.6 209.99 28.6C210.15 28.6 210.243 28.6 210.27 28.6C210.856 28.6 211.363 28.4 211.79 28C212.216 27.5733 212.43 27.0667 212.43 26.48H212.55ZM218.11 26.48H218.19C218.216 27.0667 218.443 27.5733 218.87 28C219.296 28.4 219.803 28.6 220.39 28.6C220.39 28.6 220.456 28.6 220.59 28.6C220.75 28.6 220.83 28.6 220.83 28.6V29H218.11V26.48ZM218.11 7.52V5H220.83V5.4C220.83 5.4 220.75 5.4 220.59 5.4C220.456 5.4 220.39 5.4 220.39 5.4C219.803 5.4 219.296 5.6 218.87 6C218.443 6.4 218.216 6.90667 218.19 7.52H218.11ZM212.55 7.52H212.43C212.43 6.90667 212.216 6.4 211.79 6C211.363 5.6 210.856 5.4 210.27 5.4C210.243 5.4 210.15 5.4 209.99 5.4C209.856 5.4 209.79 5.4 209.79 5.4V5H212.55V7.52ZM228.83 26.48V29H226.11V28.6C226.11 28.6 226.176 28.6 226.31 28.6C226.47 28.6 226.55 28.6 226.55 28.6C227.136 28.6 227.643 28.4 228.07 28C228.496 27.5733 228.71 27.0667 228.71 26.48H228.83ZM234.35 26.48H234.47C234.496 27.0667 234.71 27.5733 235.11 28C235.536 28.4 236.056 28.6 236.67 28.6C236.67 28.6 236.736 28.6 236.87 28.6C237.03 28.6 237.11 28.6 237.11 28.6V29H234.35V26.48ZM234.39 7.52V5H237.15V5.4C237.15 5.4 237.07 5.4 236.91 5.4C236.75 5.4 236.67 5.4 236.67 5.4C236.056 5.4 235.536 5.6 235.11 6C234.71 6.4 234.51 6.90667 234.51 7.52H234.39ZM228.83 7.52H228.71C228.71 6.90667 228.496 6.4 228.07 6C227.643 5.6 227.136 5.4 226.55 5.4C226.55 5.4 226.47 5.4 226.31 5.4C226.176 5.4 226.11 5.4 226.11 5.4V5H228.83V7.52ZM251.229 3.92L263.069 28.8H256.309L248.869 11.24L251.229 3.92ZM243.709 26.36C243.415 27.08 243.455 27.64 243.829 28.04C244.202 28.4133 244.615 28.6 245.069 28.6H245.389V29H237.389V28.6C237.389 28.6 237.442 28.6 237.549 28.6C237.655 28.6 237.709 28.6 237.709 28.6C238.242 28.6 238.802 28.44 239.389 28.12C239.975 27.7733 240.455 27.1867 240.829 26.36H243.709ZM251.229 3.92L251.309 8.72L242.629 28.88H239.669L249.029 8.76C249.082 8.6 249.202 8.32 249.389 7.92C249.575 7.49333 249.775 7.02667 249.989 6.52C250.202 5.98667 250.402 5.49333 250.589 5.04C250.775 4.56 250.882 4.18667 250.909 3.92H251.229ZM254.709 21.16V22.72H244.509V21.16H254.709ZM255.309 26.36H261.909C262.309 27.1867 262.802 27.7733 263.389 28.12C263.975 28.44 264.535 28.6 265.069 28.6C265.069 28.6 265.122 28.6 265.229 28.6C265.335 28.6 265.389 28.6 265.389 28.6V29H253.629V28.6H253.949C254.402 28.6 254.815 28.4133 255.189 28.04C255.562 27.64 255.602 27.08 255.309 26.36ZM276.747 5.12V29H270.947V5.12H276.747ZM285.467 4.96V6.56H262.267V4.96H285.467ZM285.467 6.44V10.68H285.027V10.32C285.054 9.17333 284.734 8.26666 284.067 7.6C283.427 6.93333 282.534 6.58667 281.387 6.56V6.44H285.467ZM285.467 4.36V5.36L281.227 4.96C281.734 4.96 282.281 4.93333 282.867 4.88C283.454 4.8 283.987 4.72 284.467 4.64C284.947 4.53333 285.281 4.44 285.467 4.36ZM271.027 26.48V29H268.347V28.6C268.347 28.6 268.414 28.6 268.547 28.6C268.707 28.6 268.787 28.6 268.787 28.6C269.374 28.6 269.867 28.4 270.267 28C270.694 27.5733 270.921 27.0667 270.947 26.48H271.027ZM276.627 26.48H276.747C276.747 27.0667 276.961 27.5733 277.387 28C277.814 28.4 278.334 28.6 278.947 28.6C278.947 28.6 279.014 28.6 279.147 28.6C279.307 28.6 279.387 28.6 279.387 28.6V29H276.627V26.48ZM266.347 6.44V6.56C265.174 6.58667 264.267 6.93333 263.627 7.6C263.014 8.26666 262.707 9.17333 262.707 10.32V10.68H262.267V6.44H266.347ZM262.267 4.36C262.507 4.41333 262.854 4.49333 263.307 4.6C263.787 4.70667 264.307 4.8 264.867 4.88C265.454 4.93333 265.987 4.96 266.467 4.96L262.267 5.36V4.36Z" fill="#B50A0A"/>
</svg>
